<svg xmlns="http://www.w3.org/2000/svg" width="53.805" height="53.805" viewBox="0 0 53.805 53.805">
  <g id="Group_213" data-name="Group 213" transform="translate(-64.97 -191.616)">
    <g id="Group_14" data-name="Group 14" transform="translate(64.97 191.616)">
      <path id="Path_6" data-name="Path 6" d="M53.5,9.87,43.934.308A1.051,1.051,0,0,0,43.191,0H11.98A3.156,3.156,0,0,0,8.827,3.153v2A13.9,13.9,0,0,0,0,18.085a1.051,1.051,0,0,0,1.051,1.051h12.83a1.051,1.051,0,0,0,1.051-1.051V5.254A1.051,1.051,0,0,0,13.881,4.2a13.875,13.875,0,0,0-2.952.317V3.153A1.052,1.052,0,0,1,11.98,2.1h30.16v6.41a3.156,3.156,0,0,0,3.153,3.153H51.7V50.653A1.052,1.052,0,0,1,50.653,51.7H11.98a1.052,1.052,0,0,1-1.051-1.051v-9a1.051,1.051,0,0,0-2.1,0v9a3.156,3.156,0,0,0,3.153,3.153H50.653a3.156,3.156,0,0,0,3.153-3.153V10.613A1.051,1.051,0,0,0,53.5,9.87ZM12.83,6.352V17.034H2.148A11.8,11.8,0,0,1,12.83,6.352ZM45.293,9.563a1.052,1.052,0,0,1-1.051-1.051V3.588l5.976,5.975Z" transform="translate(0)" fill="#7e00fc"/>
    </g>
    <g id="Group_16" data-name="Group 16" transform="translate(73.797 228.397)">
      <g id="Group_15" data-name="Group 15" transform="translate(0 0)">
        <path id="Path_7" data-name="Path 7" d="M12.2,43.657a1.05,1.05,0,1,0,.308.743A1.058,1.058,0,0,0,12.2,43.657Z" transform="translate(-10.404 -43.349)" fill="#7e00fc"/>
      </g>
    </g>
    <g id="Group_18" data-name="Group 18" transform="translate(68.734 199.584)">
      <g id="Group_17" data-name="Group 17" transform="translate(0 0)">
        <path id="Path_8" data-name="Path 8" d="M18.318,9.391a1.051,1.051,0,0,0-1.051,1.051V22.221H5.487a1.051,1.051,0,0,0-1.051,1.051A13.881,13.881,0,1,0,18.318,9.391Zm1.051,2.148a11.726,11.726,0,0,1,6.5,2.7l-6.5,6.5ZM18.318,35.051A11.8,11.8,0,0,1,6.585,24.323H18.318a1.048,1.048,0,0,0,.743-.307h0l8.292-8.292a11.774,11.774,0,0,1-9.036,19.329Z" transform="translate(-4.436 -9.391)" fill="#7e00fc"/>
      </g>
    </g>
    <g id="Group_20" data-name="Group 20" transform="translate(81.144 224.782)">
      <g id="Group_19" data-name="Group 19" transform="translate(0 0)">
        <path id="Path_9" data-name="Path 9" d="M48.925,39.089a3.152,3.152,0,0,0-2.9,4.381l-6.054,6.054a3.147,3.147,0,0,0-2.722-.014l-4.02-4.02a3.153,3.153,0,1,0-5.8.173L23.57,49.519A3.153,3.153,0,1,0,25.058,51l3.835-3.835a3.142,3.142,0,0,0,2.952-.086l3.907,3.907a3.153,3.153,0,1,0,5.692.03l6-6a3.152,3.152,0,1,0,1.483-5.934ZM22.214,53.416a1.051,1.051,0,1,1,.727-1.808l.012.013.016.014a1.05,1.05,0,0,1-.755,1.78Zm8.074-8.022a1.051,1.051,0,1,1,1.051-1.051A1.052,1.052,0,0,1,30.288,45.394Zm8.3,8.017a1.051,1.051,0,1,1,1.051-1.051A1.052,1.052,0,0,1,38.591,53.412ZM48.924,43.293a1.051,1.051,0,1,1,1.051-1.051A1.052,1.052,0,0,1,48.924,43.293Z" transform="translate(-19.062 -39.089)" fill="#7e00fc"/>
      </g>
    </g>
    <g id="Group_22" data-name="Group 22" transform="translate(99.156 216.312)">
      <g id="Group_21" data-name="Group 21" transform="translate(0 0)">
        <path id="Path_10" data-name="Path 10" d="M46.889,29.106H41.342a1.051,1.051,0,1,0,0,2.1h5.546a1.051,1.051,0,0,0,0-2.1Z" transform="translate(-40.291 -29.106)" fill="#7e00fc"/>
      </g>
    </g>
    <g id="Group_24" data-name="Group 24" transform="translate(109.488 216.312)">
      <g id="Group_23" data-name="Group 23" transform="translate(0 0)">
        <path id="Path_11" data-name="Path 11" d="M54.261,29.414a1.05,1.05,0,1,0,.308.743A1.058,1.058,0,0,0,54.261,29.414Z" transform="translate(-52.467 -29.106)" fill="#7e00fc"/>
      </g>
    </g>
    <g id="Group_26" data-name="Group 26" transform="translate(99.156 206.223)">
      <g id="Group_25" data-name="Group 25" transform="translate(0 0)">
        <path id="Path_12" data-name="Path 12" d="M54.179,17.216H41.342a1.051,1.051,0,1,0,0,2.1H54.179a1.051,1.051,0,1,0,0-2.1Z" transform="translate(-40.291 -17.216)" fill="#7e00fc"/>
      </g>
    </g>
    <g id="Group_28" data-name="Group 28" transform="translate(99.156 211.268)">
      <g id="Group_27" data-name="Group 27" transform="translate(0 0)">
        <path id="Path_13" data-name="Path 13" d="M54.179,23.161H41.342a1.051,1.051,0,1,0,0,2.1H54.179a1.051,1.051,0,1,0,0-2.1Z" transform="translate(-40.291 -23.161)" fill="#7e00fc"/>
      </g>
    </g>
  </g>
</svg>
